<?xml version="1.0" encoding="UTF-8" ?>
<!DOCTYPE svg PUBLIC "-//W3C//DTD SVG 1.1//EN" "http://www.w3.org/Graphics/SVG/1.1/DTD/svg11.dtd">
<svg width="700pt" height="700pt" viewBox="0 0 700 700" version="1.1" xmlns="http://www.w3.org/2000/svg">
<g id="#ffffffff">
<path fill="#ffffff" opacity="1.00" d=" M 340.60 0.00 L 359.40 0.00 C 411.74 1.64 463.76 14.63 510.27 38.79 C 565.01 66.98 612.05 109.90 645.14 161.83 C 664.16 191.55 678.62 224.19 687.84 258.25 C 695.11 284.77 698.80 312.16 700.00 339.60 L 700.00 360.39 C 698.54 397.42 691.92 434.30 679.18 469.14 C 656.81 531.28 616.24 586.62 563.99 626.97 C 514.02 665.79 453.29 690.55 390.41 697.69 C 380.12 698.96 369.75 699.40 359.41 700.00 L 339.61 700.00 C 303.64 698.58 267.78 692.30 233.83 680.24 C 174.76 659.57 121.62 622.52 81.50 574.51 C 58.16 546.65 39.19 515.13 25.53 481.44 C 9.72 442.73 1.41 401.15 0.00 359.40 L 0.00 337.63 C 1.63 306.53 6.38 275.49 15.81 245.76 C 34.46 185.58 69.92 130.80 116.94 88.91 C 157.63 52.49 206.95 25.76 259.74 11.76 C 286.12 4.70 313.33 1.02 340.60 0.00 M 240.89 29.94 C 184.70 48.91 134.00 83.36 95.09 128.05 C 57.50 170.94 31.04 223.54 19.38 279.39 C 11.12 318.19 9.90 358.42 15.28 397.72 C 18.89 394.14 22.87 390.99 26.84 387.84 C 30.75 384.77 34.02 381.00 37.85 377.85 C 43.36 373.36 47.74 367.73 52.56 362.57 C 55.98 359.00 59.49 355.51 62.85 351.87 C 69.20 344.24 76.64 337.62 82.97 329.98 C 98.21 314.84 111.75 298.13 126.93 282.94 C 138.45 270.13 150.44 257.77 162.09 245.09 C 174.41 232.40 185.94 218.97 198.35 206.36 C 206.88 196.60 216.05 187.19 227.10 180.27 C 232.54 176.89 238.73 175.04 244.63 172.64 C 261.73 165.65 278.98 158.97 295.59 150.85 C 314.05 143.17 332.43 135.28 350.51 126.73 C 359.36 123.97 367.32 117.69 376.99 118.22 C 386.97 117.90 397.21 121.57 404.15 128.87 C 413.80 138.96 422.00 150.31 431.06 160.91 C 435.70 166.02 439.96 171.45 444.21 176.88 C 445.96 178.94 447.93 181.53 450.92 181.48 C 456.78 181.82 462.74 181.20 468.52 182.51 C 473.27 183.54 478.15 183.41 482.99 183.48 C 488.69 183.52 494.32 184.58 500.03 184.62 C 511.11 185.79 522.29 185.76 533.36 187.17 C 539.89 187.63 546.45 187.58 552.96 188.31 C 561.12 188.50 569.28 188.73 577.33 190.20 C 590.15 190.87 603.02 191.23 615.79 192.67 C 618.79 192.87 620.64 195.55 621.74 198.06 C 624.88 205.25 626.50 213.11 626.64 220.94 C 625.97 233.77 621.09 246.71 611.57 255.59 C 603.88 263.10 594.53 271.32 583.02 270.58 C 576.66 270.39 570.36 271.39 564.01 271.68 C 553.06 273.11 541.96 271.96 531.01 273.44 C 514.93 273.44 498.99 275.70 482.97 276.65 C 473.30 277.62 463.57 277.72 453.95 279.16 C 434.56 280.66 415.13 281.51 395.81 283.83 C 388.20 284.96 380.46 284.06 372.86 285.29 C 367.77 286.05 362.60 286.21 357.53 286.98 C 352.94 288.77 348.54 291.43 345.16 295.05 C 332.13 311.15 328.57 333.75 333.98 353.52 C 335.99 363.06 340.62 372.41 348.53 378.39 C 353.88 382.17 360.64 382.78 367.01 382.50 C 377.41 381.99 387.65 384.37 398.03 384.60 C 404.03 385.35 409.96 386.56 416.00 387.04 C 425.57 389.10 435.35 389.71 445.01 391.27 C 454.35 391.51 463.37 394.29 472.70 394.76 C 482.26 396.41 491.94 397.26 501.49 398.98 C 519.53 403.36 538.07 411.13 549.40 426.54 C 555.66 434.26 557.12 444.47 558.32 454.03 C 557.13 467.12 554.33 481.10 545.00 491.00 C 537.13 500.29 524.80 504.46 513.02 505.61 C 501.25 505.73 489.27 506.34 477.74 503.50 C 463.54 500.86 449.60 496.93 435.91 492.33 C 428.87 489.80 421.13 490.35 413.99 492.14 C 406.34 492.87 398.59 492.13 390.97 493.27 C 383.26 493.42 375.74 495.45 368.03 495.56 C 351.74 497.58 335.40 500.06 319.71 505.02 C 313.59 506.75 309.28 511.62 304.55 515.53 C 296.61 522.24 287.56 527.44 278.36 532.21 C 269.83 537.09 260.56 540.43 251.52 544.23 C 228.51 552.32 204.34 557.09 180.00 558.50 C 165.67 558.26 151.28 559.20 137.00 557.72 C 127.56 557.45 118.27 555.49 109.00 553.78 C 105.99 553.34 102.94 553.71 99.97 554.26 C 94.41 555.27 88.78 555.98 83.29 557.41 C 96.82 575.39 112.72 591.53 129.65 606.32 C 156.54 629.51 187.07 648.47 219.85 662.13 C 295.32 693.71 382.33 696.46 459.68 669.86 C 548.17 639.97 622.43 571.28 659.74 485.72 C 693.03 410.21 696.99 322.40 671.12 244.07 C 661.32 214.13 647.18 185.62 629.38 159.62 C 591.75 104.64 537.80 60.83 475.86 36.13 C 401.59 6.23 316.64 4.10 240.89 29.94 M 373.28 138.41 C 363.46 141.97 354.34 147.19 344.52 150.77 C 334.54 156.07 323.81 159.64 313.61 164.45 C 310.23 166.01 306.51 167.19 304.00 170.11 C 308.89 172.40 314.43 172.16 319.67 172.91 C 326.46 174.02 333.37 173.11 340.17 174.05 C 346.17 174.80 352.26 174.40 358.25 175.24 C 362.17 175.70 366.11 175.66 370.05 175.73 C 382.07 176.23 393.95 178.60 406.00 178.55 C 410.36 178.41 414.68 179.80 419.02 179.05 C 418.83 177.45 418.72 175.71 417.42 174.56 C 413.21 170.07 409.90 164.82 405.59 160.41 C 399.79 154.18 395.71 146.31 388.66 141.29 C 384.32 138.11 378.49 136.35 373.28 138.41 M 241.40 195.49 C 235.73 198.58 229.87 201.64 225.39 206.39 C 217.97 213.96 210.26 221.26 203.32 229.29 C 199.01 234.27 194.03 238.65 189.91 243.81 C 185.34 249.55 179.41 254.03 174.84 259.77 C 167.88 268.16 159.94 275.65 152.85 283.93 C 148.19 288.92 143.13 293.54 138.75 298.79 C 133.73 304.73 127.89 309.90 122.82 315.80 C 105.20 334.82 87.36 353.64 69.76 372.67 C 64.64 378.89 58.43 384.12 53.40 390.42 C 49.32 394.98 45.25 399.61 40.50 403.50 C 33.40 409.80 26.78 416.61 20.16 423.39 C 24.55 445.57 32.09 467.08 41.17 487.76 C 49.31 505.92 58.97 523.43 70.29 539.81 C 82.96 538.68 95.15 533.65 108.00 534.30 C 113.10 534.25 117.99 535.85 123.02 536.42 C 132.37 537.13 141.58 539.37 150.98 539.34 C 160.33 539.42 169.68 539.47 179.02 539.26 C 201.51 537.17 224.00 533.27 245.18 525.19 C 258.23 520.90 270.55 514.62 282.12 507.25 C 289.57 503.20 295.30 496.77 302.54 492.42 C 310.51 487.25 319.79 484.67 328.97 482.60 C 345.79 478.84 362.84 476.05 380.01 474.47 C 386.90 473.94 393.92 474.88 400.73 473.43 C 409.11 471.47 417.80 473.14 426.25 471.80 C 429.65 471.30 433.18 471.29 436.48 472.38 C 454.82 477.97 473.31 483.37 492.31 486.19 C 501.15 486.56 510.31 487.38 518.88 484.68 C 527.80 482.26 535.06 474.70 537.70 465.93 C 540.12 454.98 538.65 441.92 530.01 433.96 C 524.64 429.37 518.53 425.51 511.87 423.09 C 502.41 419.91 492.69 417.53 482.83 415.95 C 469.79 414.46 456.82 412.39 443.82 410.63 C 436.15 409.99 428.71 407.70 420.99 407.50 C 415.34 406.78 409.78 405.44 404.07 405.17 C 394.82 403.39 385.43 402.57 376.02 402.38 C 367.41 400.73 358.61 402.30 349.95 401.28 C 341.87 399.81 334.42 395.16 329.23 388.86 C 322.71 379.88 318.61 369.40 315.38 358.87 C 314.02 351.31 312.27 343.72 312.44 335.99 C 313.03 320.28 317.40 304.78 324.97 291.01 C 331.04 280.49 341.12 272.50 352.67 268.80 C 359.81 265.79 367.67 266.90 375.16 265.72 C 383.13 265.64 391.04 264.68 398.98 264.19 C 407.65 262.90 416.47 264.06 425.13 262.69 C 438.23 261.00 451.47 260.95 464.58 259.44 C 472.36 258.60 480.18 258.44 487.97 257.70 C 497.35 257.57 506.59 255.53 515.99 255.62 C 521.61 255.66 527.17 254.79 532.75 254.24 C 540.99 253.02 549.39 254.12 557.64 252.87 C 566.74 251.90 575.85 250.86 585.01 250.51 C 591.40 248.67 596.50 243.75 600.75 238.81 C 606.68 231.44 609.80 220.97 606.16 211.89 C 598.95 209.69 591.36 211.06 584.00 209.97 C 578.07 209.18 572.03 209.98 566.15 208.87 C 558.24 206.89 550.02 207.90 541.97 207.38 C 532.95 206.60 523.93 205.91 514.94 204.83 C 508.93 204.54 502.91 204.69 496.94 203.85 C 487.59 203.78 478.36 202.17 469.00 202.40 C 461.68 201.73 454.32 201.53 447.00 200.71 C 439.67 200.03 432.26 200.83 424.96 199.68 C 407.04 197.45 388.88 198.29 371.00 195.70 C 354.98 195.10 339.03 193.55 323.04 192.54 C 314.21 192.95 305.58 191.11 296.99 189.39 C 278.43 185.98 258.56 187.18 241.40 195.49 Z" />
<path fill="#ffffff" opacity="1.00" d=" M 459.61 296.52 C 463.65 290.97 470.33 287.86 476.98 286.85 C 481.31 287.51 485.82 287.89 489.85 289.75 C 489.18 294.14 486.06 299.09 488.75 303.32 C 491.32 308.07 499.49 307.87 501.67 302.88 C 502.91 299.41 503.65 295.78 504.89 292.31 C 506.50 292.67 508.06 293.23 509.63 293.78 C 509.41 297.97 507.97 302.17 508.82 306.36 C 510.49 309.85 514.89 312.96 518.72 310.71 C 523.70 308.47 523.62 302.39 525.04 297.91 C 526.55 296.64 528.76 297.66 530.55 297.47 C 531.29 301.97 528.75 306.22 529.37 310.67 C 530.67 313.61 533.50 316.32 536.97 315.70 C 541.81 316.11 543.32 310.58 544.13 306.86 C 544.86 304.82 544.99 300.83 548.08 301.37 C 549.21 301.49 550.75 301.44 551.43 302.57 C 551.76 307.08 549.50 311.49 550.53 316.01 C 552.03 319.56 556.86 321.86 560.29 319.45 C 564.48 317.32 565.04 312.22 565.67 308.09 C 565.66 306.89 566.50 305.35 567.91 305.78 C 572.15 306.72 576.63 307.42 580.41 309.68 C 586.31 313.94 591.11 320.45 591.52 327.92 C 593.14 347.58 591.92 367.34 592.37 387.04 C 592.92 393.71 589.21 400.05 584.04 404.02 C 575.21 411.21 560.12 408.66 554.66 398.48 C 551.43 392.24 549.53 385.44 547.07 378.88 C 545.52 374.85 544.67 370.42 542.13 366.85 C 539.90 365.52 537.22 365.41 534.76 364.79 C 519.34 361.69 504.02 358.17 488.65 354.91 C 486.47 354.17 484.52 355.62 482.96 356.96 C 474.87 364.15 468.61 373.43 459.42 379.34 C 452.01 383.19 441.92 382.22 436.04 375.99 C 429.04 369.44 428.77 358.18 433.21 350.13 C 438.82 339.27 443.43 327.92 449.06 317.06 C 452.47 310.17 455.02 302.77 459.61 296.52 M 484.91 311.73 C 484.20 314.43 483.16 317.03 481.92 319.53 C 478.86 318.76 475.62 317.86 472.48 318.54 C 470.00 319.93 470.16 323.07 470.61 325.49 C 472.65 327.68 475.91 327.82 478.64 328.57 C 478.16 331.35 476.96 334.61 478.98 337.07 C 480.36 339.28 483.38 338.68 485.56 338.46 C 488.01 337.03 488.55 333.81 489.79 331.45 C 493.00 331.25 498.62 333.19 499.60 328.75 C 501.01 324.08 495.54 322.81 492.50 321.09 C 492.56 318.57 492.76 316.02 492.36 313.52 C 491.02 310.56 487.47 311.27 484.91 311.73 M 550.16 327.75 C 547.08 329.63 546.69 334.25 549.84 336.28 C 553.31 339.65 559.04 334.18 556.91 330.33 C 555.98 327.57 552.66 326.50 550.16 327.75 M 563.52 330.56 C 560.79 332.04 559.60 335.93 561.49 338.53 C 563.24 341.81 568.71 341.28 569.97 337.81 C 572.13 333.84 567.79 328.78 563.52 330.56 M 547.50 341.54 C 545.55 342.80 543.64 345.62 545.20 347.86 C 546.38 350.43 549.84 352.51 552.34 350.37 C 554.98 349.19 554.96 345.99 554.38 343.59 C 553.09 341.24 549.84 339.95 547.50 341.54 M 560.49 344.49 C 556.88 346.51 557.22 354.07 561.98 354.44 C 566.02 355.13 568.94 349.64 566.68 346.42 C 565.65 344.00 562.67 343.90 560.49 344.49 Z" />
</g>
</svg>
