<?xml version="1.0" encoding="UTF-8" ?>
<!DOCTYPE svg PUBLIC "-//W3C//DTD SVG 1.1//EN" "http://www.w3.org/Graphics/SVG/1.1/DTD/svg11.dtd">
<svg width="512pt" height="512pt" viewBox="0 0 512 512" version="1.1" xmlns="http://www.w3.org/2000/svg">
<g id="#ffffffff">
<path fill="#ffffff" opacity="1.00" d=" M 278.16 61.33 C 282.36 59.49 286.51 57.39 291.06 56.50 C 301.15 55.00 311.87 58.69 318.86 66.13 C 326.00 74.97 333.42 83.59 340.57 92.44 C 345.42 97.57 349.10 103.81 354.57 108.33 C 376.39 109.67 398.19 111.44 420.06 112.52 C 431.34 113.92 442.74 114.01 454.07 114.80 C 466.84 116.38 479.77 115.92 492.50 117.76 C 496.16 118.65 497.25 122.82 498.37 125.92 C 503.10 138.75 500.91 153.78 492.72 164.73 C 487.08 171.98 479.71 178.38 470.88 181.33 C 463.75 181.85 456.60 182.08 449.47 182.66 C 440.06 184.20 430.41 182.76 421.02 184.42 C 415.64 184.43 410.28 184.72 404.95 185.36 C 393.24 185.26 381.73 187.82 370.02 187.69 C 356.74 189.54 343.30 189.62 330.01 191.37 C 322.95 191.30 316.01 192.48 308.98 192.83 C 303.28 193.83 297.43 193.11 291.77 194.32 C 287.35 194.74 282.84 194.51 278.53 195.72 C 274.67 197.50 270.79 199.68 268.11 203.06 C 256.07 218.83 254.64 241.31 262.67 259.17 C 265.29 265.10 269.63 270.93 276.14 272.78 C 285.60 275.67 295.65 273.23 305.25 275.22 C 316.26 275.91 327.09 278.02 338.01 279.47 C 344.01 279.51 349.72 281.79 355.74 281.68 C 361.80 282.94 367.94 283.59 374.07 284.38 C 386.29 286.29 398.91 286.95 410.47 291.75 C 421.31 296.00 432.33 302.12 438.52 312.37 C 440.86 315.93 442.34 320.00 443.39 324.11 C 443.83 328.58 445.47 333.09 444.16 337.57 C 443.02 347.36 440.00 357.65 432.63 364.63 C 425.36 372.38 414.43 375.87 403.98 375.79 C 395.39 375.75 386.66 376.04 378.25 373.98 C 368.14 372.09 358.19 369.43 348.39 366.34 C 339.40 362.46 329.50 364.84 320.08 364.64 C 315.12 365.44 310.09 365.35 305.09 365.61 C 288.65 367.50 272.05 368.77 255.99 372.99 C 251.03 374.29 245.74 375.38 241.60 378.60 C 224.81 393.71 203.96 403.54 182.66 410.54 C 166.20 415.32 149.22 418.97 132.00 418.88 C 113.76 418.69 95.29 419.95 77.38 415.84 C 74.33 415.09 71.12 415.30 68.02 415.54 C 50.33 418.49 32.25 422.90 17.42 433.46 C 16.01 434.80 14.07 434.64 12.28 434.69 C 11.97 428.95 11.67 423.09 12.35 417.40 C 26.17 408.58 42.17 403.61 58.24 400.85 C 64.65 399.25 71.33 398.88 77.89 399.56 C 102.72 404.36 128.48 404.81 153.44 400.63 C 177.37 396.13 200.94 387.96 221.24 374.27 C 225.54 371.29 229.17 367.43 233.67 364.72 C 243.68 358.17 255.83 356.64 267.23 353.99 C 282.06 351.78 296.92 349.38 311.96 349.24 C 318.23 347.93 324.66 348.66 331.00 348.01 C 334.58 347.57 338.21 347.22 341.82 347.61 C 359.88 352.44 377.80 358.96 396.61 359.90 C 398.76 360.48 400.92 359.69 403.08 359.62 C 410.26 359.67 417.89 357.23 422.61 351.58 C 429.18 344.84 429.87 334.28 427.22 325.68 C 424.13 316.69 415.48 311.52 407.22 307.96 C 389.61 301.00 370.46 300.68 352.01 297.62 C 347.83 297.43 343.71 296.68 339.63 295.80 C 329.37 294.80 319.22 293.05 309.02 291.56 C 303.39 291.51 297.83 290.56 292.21 290.45 C 285.20 289.04 278.01 290.46 270.98 289.30 C 264.29 287.03 257.91 283.01 254.12 276.91 C 242.26 258.74 238.78 235.29 245.41 214.58 C 249.09 202.49 255.58 190.25 267.07 183.99 C 277.61 177.70 290.26 178.33 302.06 177.55 C 318.34 176.11 334.65 175.28 350.93 173.86 C 355.34 173.42 359.82 173.85 364.17 172.82 C 378.11 171.81 392.08 171.33 405.96 169.74 C 418.33 169.61 430.56 167.59 442.93 167.47 C 451.21 166.16 459.69 166.50 467.95 165.20 C 473.16 162.65 477.32 158.31 480.89 153.83 C 484.68 148.17 487.12 140.55 484.18 134.01 C 479.47 131.67 474.02 132.92 468.98 132.21 C 462.28 130.97 455.34 132.20 448.70 130.64 C 446.27 130.37 443.82 130.60 441.40 130.30 C 433.65 129.08 425.73 130.08 418.01 128.67 C 413.30 128.80 408.73 127.52 404.03 127.59 C 393.65 127.59 383.37 125.98 373.02 125.56 C 365.97 125.70 359.03 124.43 352.00 124.32 C 344.38 123.10 336.58 124.11 328.98 122.70 C 313.61 121.67 298.21 121.26 282.89 119.60 C 275.41 119.69 268.04 118.70 260.60 118.20 C 252.11 116.96 243.41 118.22 235.02 116.13 C 222.23 113.31 208.78 112.46 195.96 115.58 C 185.52 118.06 175.29 122.93 167.97 130.96 C 157.53 141.54 147.63 152.63 137.54 163.54 C 134.25 166.92 130.80 170.16 127.83 173.83 C 123.65 178.64 118.92 182.95 114.85 187.86 C 109.71 193.71 103.84 198.87 98.91 204.90 C 74.19 231.52 49.29 257.95 24.70 284.69 C 22.56 286.89 20.50 290.03 17.02 289.78 C 15.47 289.57 13.31 290.38 12.21 288.95 C 11.72 283.97 12.19 278.95 11.98 273.96 C 17.21 269.20 22.12 264.08 26.74 258.74 C 67.09 215.42 107.55 172.21 147.84 128.84 C 155.90 119.56 164.91 110.65 176.09 105.24 C 210.52 91.58 244.12 75.95 278.16 61.33 M 289.98 73.80 C 273.20 81.02 256.54 88.53 239.74 95.70 C 237.92 96.69 234.37 97.27 235.73 100.09 C 249.39 102.09 263.25 101.90 276.93 103.39 C 284.33 103.37 291.65 104.56 299.05 104.49 C 301.73 104.39 304.26 105.54 306.95 105.41 C 314.65 105.42 322.27 106.68 329.98 106.53 C 329.89 105.53 329.68 104.56 329.34 103.62 C 322.42 95.53 315.62 87.31 308.95 79.01 C 304.58 73.53 296.55 70.44 289.98 73.80 Z" />
<path fill="#ffffff" opacity="1.00" d=" M 363.27 203.21 C 366.12 198.84 371.20 196.59 376.11 195.41 C 379.90 194.97 383.57 196.45 387.32 196.79 C 389.19 200.54 384.78 204.99 387.36 208.71 C 389.29 212.36 394.89 212.63 397.41 209.46 C 398.98 206.27 399.28 202.61 400.79 199.38 C 402.09 199.92 403.42 200.43 404.76 200.91 C 404.78 205.04 401.85 210.14 405.37 213.56 C 407.56 216.38 412.21 216.09 414.15 213.15 C 416.57 210.42 415.95 206.45 417.70 203.39 C 419.06 203.51 420.41 203.71 421.76 203.97 C 422.33 207.42 420.72 210.62 420.36 213.97 C 421.33 218.16 426.24 220.28 429.95 218.17 C 433.29 215.54 432.73 210.84 434.47 207.31 C 435.84 207.34 437.19 207.46 438.56 207.63 C 439.19 211.15 437.89 214.57 437.59 218.04 C 438.57 220.70 440.85 223.45 444.01 222.74 C 449.71 222.72 450.64 215.74 450.86 211.35 C 456.53 211.42 462.81 212.82 466.58 217.42 C 470.25 220.96 471.73 226.09 472.23 231.02 C 472.70 246.34 472.33 261.68 472.48 277.01 C 474.18 288.30 461.62 298.33 451.01 294.47 C 444.31 292.91 440.48 286.36 438.55 280.25 C 436.18 273.71 434.03 267.08 431.32 260.67 C 417.00 257.84 402.78 254.58 388.50 251.56 C 387.01 251.39 385.17 250.71 383.94 251.92 C 377.34 257.32 372.57 264.61 365.81 269.83 C 361.46 273.21 355.39 274.19 350.16 272.51 C 345.14 270.90 341.06 266.76 339.56 261.70 C 339.14 257.46 338.68 252.84 340.83 248.96 C 344.73 240.78 348.48 232.53 352.44 224.38 C 356.12 217.36 358.87 209.84 363.27 203.21 M 382.12 221.77 C 379.30 221.64 376.37 220.70 373.60 221.56 C 371.96 222.96 372.06 225.37 372.60 227.27 C 374.27 228.92 376.71 229.15 378.91 229.57 C 378.14 232.32 377.92 235.29 379.83 237.67 C 381.64 237.75 383.47 237.79 385.30 237.81 C 386.59 235.93 387.26 233.75 387.72 231.54 C 390.60 232.41 395.06 233.60 396.37 229.84 C 397.54 225.94 392.85 224.89 390.17 223.81 C 390.54 220.91 391.62 216.24 387.74 215.39 C 383.81 214.43 382.86 218.96 382.12 221.77 M 438.54 228.53 C 435.90 229.57 435.84 232.62 436.41 234.99 C 438.12 238.27 444.10 236.78 443.71 232.92 C 444.21 230.04 441.29 227.60 438.54 228.53 M 448.58 231.48 C 445.01 233.54 446.50 240.31 450.87 239.61 C 454.32 239.82 455.87 234.79 453.59 232.53 C 452.53 230.86 450.23 231.18 448.58 231.48 M 434.03 242.24 C 432.83 244.04 433.97 246.46 435.56 247.60 C 437.96 249.91 442.13 247.04 441.65 244.00 C 442.02 241.63 439.61 240.56 438.10 239.33 C 436.64 240.14 434.75 240.56 434.03 242.24 M 445.48 243.58 C 443.61 245.57 444.18 249.21 446.51 250.63 C 448.05 251.07 449.62 250.55 451.16 250.33 C 451.51 248.42 453.01 246.30 451.57 244.50 C 450.60 242.19 446.98 241.49 445.48 243.58 Z" />
</g>
</svg>
